<?xml version="1.0" encoding="utf-8"?>
<!-- Generator: Adobe Illustrator 22.0.0, SVG Export Plug-In . SVG Version: 6.00 Build 0)  -->
<svg version="1.1" id="图层_1" xmlns="http://www.w3.org/2000/svg" xmlns:xlink="http://www.w3.org/1999/xlink" x="0px" y="0px"
	 viewBox="0 0 198.5 188.3" style="enable-background:new 0 0 198.5 188.3;" xml:space="preserve">
<path d="M75.5,12.5c-38,0-68.8,30.8-68.8,68.8c0,38,30.8,68.8,68.8,68.8c38,0,68.8-30.8,68.8-68.8C144.3,43.3,113.5,12.5,75.5,12.5z
	 M75.5,141.8c-33.4,0-60.5-27.1-60.5-60.5s27.1-60.5,60.5-60.5S136,47.9,136,81.3S108.9,141.8,75.5,141.8z"/>
<path d="M116.8,130.4L177,178l14.4-18.2l-60.2-47.6L116.8,130.4z M185.5,160.7l-9,11.4L123.2,130l9-11.4L185.5,160.7z"/>
</svg>
