<?xml version="1.0" encoding="utf-8"?>
<!-- Generator: Adobe Illustrator 22.0.0, SVG Export Plug-In . SVG Version: 6.00 Build 0)  -->
<svg version="1.1" id="图层_1" xmlns="http://www.w3.org/2000/svg" xmlns:xlink="http://www.w3.org/1999/xlink" x="0px" y="0px"
	 viewBox="0 0 135.1 151.7" style="enable-background:new 0 0 135.1 151.7;" xml:space="preserve">
<path d="M58,2C28.2,2,4,26.1,4,56s24.2,54,54,54s54-24.2,54-54S87.8,2,58,2z M58,105.7C30.6,105.7,8.3,83.4,8.3,56S30.6,6.2,58,6.2
	s49.7,22.3,49.7,49.7S85.5,105.7,58,105.7z"/>
<text transform="matrix(1 0 0 1 648 864)" style="font-family:'AdobeSongStd-Light-GBpc-EUC-H'; font-size:12px;">magnifying glass</text>
<path d="M95.8,92.9L85,101.4l36.8,46.8l10.8-8.5L95.8,92.9z M87.5,101.3l7.6-6l34.6,44l-7.6,6L87.5,101.3z"/>
</svg>
