<?xml version="1.0" encoding="utf-8"?>
<!-- Generator: Adobe Illustrator 22.0.0, SVG Export Plug-In . SVG Version: 6.00 Build 0)  -->
<svg version="1.1" id="图层_1" xmlns="http://www.w3.org/2000/svg" xmlns:xlink="http://www.w3.org/1999/xlink" x="0px" y="0px"
	 viewBox="0 0 425.2 425.3" style="enable-background:new 0 0 425.2 425.3;" xml:space="preserve">
<path d="M174.1,12.1c-87.8,0-159,71.2-159,159s71.2,159,159,159s159-71.2,159-159S261.9,12.1,174.1,12.1z M174.1,312.1
	c-77.9,0-141-63.1-141-141s63.1-141,141-141s141,63.1,141,141S252,312.1,174.1,312.1z"/>
<path d="M266.2,293.4l119.2,125.9l33.5-31.7L299.7,261.7L266.2,293.4z M411.1,386.9l-26,24.6L273.2,293.3l26-24.6L411.1,386.9z"/>
</svg>
